REM DIRINDEX 1\2,1\3,1\4,1\5
REM DIRNAME folder01,folder02,folder03,folder04,folder05
TITLE ""
FILE "P1Q_t_1200-1209.mp3" MP3
  TRACK 01 AUDIO
    TITLE "3:cjc005_4506"
    INDEX 01 00:00:00
  TRACK 02 AUDIO
    TITLE "0:"
    INDEX 01 00:01:05
  TRACK 03 AUDIO
    TITLE "4:cjc005_4507"
    INDEX 01 00:01:32
  TRACK 04 AUDIO
    TITLE "0:"
    INDEX 01 00:02:63
  TRACK 05 AUDIO
    TITLE "5:cjc005_4508"
    INDEX 01 00:03:12
  TRACK 06 AUDIO
    TITLE "0:"
    INDEX 01 00:07:17
  TRACK 07 AUDIO
    TITLE "3:cjc005_4509"
    INDEX 01 00:07:66
  TRACK 08 AUDIO
    TITLE "0:"
    INDEX 01 00:08:73
  TRACK 09 AUDIO
    TITLE "4:cjc005_4510"
    INDEX 01 00:09:22
  TRACK 10 AUDIO
    TITLE "0:"
    INDEX 01 00:10:35
  TRACK 11 AUDIO
    TITLE "5:cjc005_4511"
    INDEX 01 00:10:57
  TRACK 12 AUDIO
    TITLE "0:"
    INDEX 01 00:14:64
  TRACK 13 AUDIO
    TITLE "3:cjc005_4512"
    INDEX 01 00:15:38
  TRACK 14 AUDIO
    TITLE "0:"
    INDEX 01 00:16:53
  TRACK 15 AUDIO
    TITLE "4:cjc005_4513"
    INDEX 01 00:17:02
  TRACK 16 AUDIO
    TITLE "0:"
    INDEX 01 00:18:01
  TRACK 17 AUDIO
    TITLE "5:cjc005_4514"
    INDEX 01 00:18:31
  TRACK 18 AUDIO
    TITLE "0:"
    INDEX 01 00:22:48
  TRACK 19 AUDIO
    TITLE "3:cjc005_4515"
    INDEX 01 00:23:28
  TRACK 20 AUDIO
    TITLE "0:"
    INDEX 01 00:24:45
  TRACK 21 AUDIO
    TITLE "4:cjc005_4516"
    INDEX 01 00:24:72
  TRACK 22 AUDIO
    TITLE "0:"
    INDEX 01 00:26:18
  TRACK 23 AUDIO
    TITLE "5:cjc005_4517"
    INDEX 01 00:26:38
  TRACK 24 AUDIO
    TITLE "0:"
    INDEX 01 00:30:55
  TRACK 25 AUDIO
    TITLE "3:cjc005_4518"
    INDEX 01 00:31:31
  TRACK 26 AUDIO
    TITLE "0:"
    INDEX 01 00:32:35
  TRACK 27 AUDIO
    TITLE "4:cjc005_4519"
    INDEX 01 00:32:64
  TRACK 28 AUDIO
    TITLE "0:"
    INDEX 01 00:34:12
  TRACK 29 AUDIO
    TITLE "5:cjc005_4520"
    INDEX 01 00:34:38
  TRACK 30 AUDIO
    TITLE "0:"
    INDEX 01 00:38:63
  TRACK 31 AUDIO
    TITLE "3:cjc005_4521"
    INDEX 01 00:39:37
  TRACK 32 AUDIO
    TITLE "0:"
    INDEX 01 00:40:36
  TRACK 33 AUDIO
    TITLE "4:cjc005_4522"
    INDEX 01 00:40:62
  TRACK 34 AUDIO
    TITLE "0:"
    INDEX 01 00:42:08
  TRACK 35 AUDIO
    TITLE "5:cjc005_4523"
    INDEX 01 00:42:35
  TRACK 36 AUDIO
    TITLE "0:"
    INDEX 01 00:45:37
  TRACK 37 AUDIO
    TITLE "3:cjc005_4524"
    INDEX 01 00:46:11
  TRACK 38 AUDIO
    TITLE "0:"
    INDEX 01 00:47:23
  TRACK 39 AUDIO
    TITLE "4:cjc005_4525"
    INDEX 01 00:47:52
  TRACK 40 AUDIO
    TITLE "0:"
    INDEX 01 00:48:53
  TRACK 41 AUDIO
    TITLE "5:cjc005_4526"
    INDEX 01 00:49:04
  TRACK 42 AUDIO
    TITLE "0:"
    INDEX 01 00:53:33
  TRACK 43 AUDIO
    TITLE "3:cjc005_4527"
    INDEX 01 00:54:07
  TRACK 44 AUDIO
    TITLE "0:"
    INDEX 01 00:55:30
  TRACK 45 AUDIO
    TITLE "4:cjc005_4528"
    INDEX 01 00:55:59
  TRACK 46 AUDIO
    TITLE "0:"
    INDEX 01 00:57:15
  TRACK 47 AUDIO
    TITLE "5:cjc005_4529"
    INDEX 01 00:57:39
  TRACK 48 AUDIO
    TITLE "0:"
    INDEX 01 01:01:36
  TRACK 49 AUDIO
    TITLE "3:cjc005_4530"
    INDEX 01 01:02:12
  TRACK 50 AUDIO
    TITLE "0:"
    INDEX 01 01:03:24
  TRACK 51 AUDIO
    TITLE "4:cjc005_4531"
    INDEX 01 01:03:47
  TRACK 52 AUDIO
    TITLE "0:"
    INDEX 01 01:04:58
  TRACK 53 AUDIO
    TITLE "5:cjc005_4532"
    INDEX 01 01:05:05
  TRACK 54 AUDIO
    TITLE "0:"
    INDEX 01 01:09:12
  TRACK 55 AUDIO
    TITLE "3:cjc005_4533"
    INDEX 01 01:09:61
  TRACK 56 AUDIO
    TITLE "0:"
    INDEX 01 01:11:00
  TRACK 57 AUDIO
    TITLE "4:cjc005_4534"
    INDEX 01 01:11:27
  TRACK 58 AUDIO
    TITLE "0:"
    INDEX 01 01:12:60
  TRACK 59 AUDIO
    TITLE "5:cjc005_4535"
    INDEX 01 01:13:10
  TRACK 60 AUDIO
    TITLE "0:"
    INDEX 01 01:16:54
